<?xml version="1.0" standalone="no"?>
<!DOCTYPE svg PUBLIC "-//W3C//DTD SVG 20010904//EN"
 "http://www.w3.org/TR/2001/REC-SVG-20010904/DTD/svg10.dtd">
<svg version="1.0" xmlns="http://www.w3.org/2000/svg"
 width="1024.000000pt" height="1024.000000pt" viewBox="0 0 1024.000000 1024.000000"
 preserveAspectRatio="xMidYMid meet">
<metadata>
Created by potrace 1.14, written by Peter Selinger 2001-2017
</metadata>
<g transform="translate(0.000000,1024.000000) scale(0.100000,-0.100000)"
fill="#000000" stroke="none">
<path d="M4178 10145 c-2 -2 -77 -6 -168 -9 -91 -3 -187 -9 -215 -12 -27 -3
-63 -7 -80 -9 -16 -2 -38 -4 -48 -4 -14 -1 -16 -7 -11 -33 3 -18 7 -46 9 -63
2 -16 6 -43 9 -60 3 -16 10 -61 16 -100 19 -120 20 -129 26 -158 3 -15 7 -44
9 -65 2 -20 8 -62 14 -92 6 -30 13 -75 16 -99 3 -23 8 -47 11 -52 3 -5 -483
-498 -1080 -1096 l-1085 -1086 4 -46 c3 -25 7 -62 9 -81 3 -19 8 -64 11 -100
4 -36 9 -76 10 -90 12 -93 17 -139 20 -170 6 -66 20 -185 30 -250 2 -19 6 -50
7 -68 2 -27 10 -37 48 -60 25 -15 54 -32 65 -39 11 -7 27 -16 35 -20 8 -4 60
-34 115 -66 55 -33 118 -70 140 -82 22 -13 125 -73 230 -134 l189 -110 36 72
c19 40 53 98 73 129 36 54 163 184 252 259 22 19 42 36 45 39 16 18 162 126
278 205 48 33 89 63 90 68 2 4 8 7 12 7 5 0 48 25 95 55 46 30 88 55 91 55 3
0 18 8 32 18 24 17 72 44 212 120 66 36 328 167 375 187 22 9 58 25 80 35 65
30 139 62 150 64 6 1 26 9 45 18 47 20 201 70 206 66 1 -2 -29 -44 -68 -93
-39 -50 -83 -108 -97 -130 -14 -22 -31 -44 -37 -50 -5 -5 -32 -44 -59 -85 -27
-41 -51 -77 -54 -80 -3 -3 -11 -14 -18 -25 -230 -382 -325 -564 -443 -845 -29
-69 -39 -97 -40 -105 0 -3 -6 -18 -14 -33 -12 -23 -73 -188 -80 -217 -2 -5 -6
-17 -9 -25 -7 -17 -57 -177 -62 -200 -3 -8 -14 -49 -25 -90 -11 -41 -22 -82
-24 -90 -2 -8 -9 -33 -14 -55 -6 -22 -13 -51 -16 -65 -3 -14 -8 -36 -11 -50
-3 -14 -8 -36 -10 -50 -4 -24 -8 -40 -20 -92 -4 -13 -8 -39 -11 -58 -2 -19 -9
-57 -14 -85 -5 -27 -12 -68 -15 -90 -3 -23 -7 -50 -9 -61 -9 -46 -21 -148 -31
-254 -3 -36 -7 -74 -9 -85 -9 -49 -20 -337 -19 -530 0 -182 6 -320 19 -455 16
-175 17 -163 -19 -185 -72 -45 -99 -168 -54 -255 42 -83 45 -84 312 -84 129
-1 235 -2 235 -4 0 -2 -41 -21 -60 -27 -55 -18 -387 -189 -400 -205 -3 -4 -21
-15 -40 -26 -19 -10 -37 -21 -40 -24 -3 -3 -30 -21 -60 -41 -62 -40 -237 -175
-289 -223 -44 -40 -249 -245 -279 -279 -19 -21 -140 -172 -169 -212 -37 -49
-102 -149 -150 -231 -58 -97 -173 -326 -173 -342 0 -5 -8 -26 -19 -48 -10 -21
-28 -70 -40 -109 -13 -38 -25 -77 -28 -85 -9 -23 -11 -28 -41 -144 l-29 -110
-124 -1 c-105 -2 -131 -5 -170 -24 -194 -92 -198 -346 -5 -442 34 -18 64 -22
176 -25 74 -3 142 -4 150 -4 8 0 40 0 70 0 92 0 120 0 258 3 72 1 132 -2 132
-7 0 -5 6 -4 13 1 6 5 35 8 62 6 28 -1 70 -2 95 -3 36 0 257 0 330 0 8 0 40 0
70 0 92 0 120 0 258 3 72 1 132 -2 132 -7 0 -5 6 -4 13 1 6 5 35 8 62 6 28 -1
70 -2 95 -3 36 0 257 0 330 0 8 0 40 0 70 0 92 0 120 0 258 3 72 1 132 -2 132
-7 0 -5 6 -4 13 1 6 5 35 8 62 6 28 -1 70 -2 95 -3 36 0 257 0 330 0 8 0 40 0
70 0 92 0 120 0 258 3 72 1 132 -2 132 -7 0 -5 6 -4 13 1 6 5 35 8 62 6 28 -1
70 -2 95 -3 36 0 257 0 330 0 8 0 40 0 70 0 92 0 120 0 258 3 72 1 132 -2 132
-7 0 -5 6 -4 13 1 6 5 35 8 62 6 28 -1 70 -2 95 -3 36 0 257 0 330 0 8 0 40 0
70 0 92 0 120 0 258 3 72 1 132 -2 132 -7 0 -5 6 -4 13 1 6 5 35 8 62 6 54 -3
73 -3 275 -3 74 0 140 0 145 0 6 0 21 1 35 3 14 2 33 -1 43 -5 9 -5 17 -5 17
-1 0 4 36 8 80 8 44 0 80 -4 80 -8 0 -5 5 -5 12 -1 6 4 61 8 122 9 132 2 180
19 239 84 45 50 58 79 64 148 8 94 -46 181 -142 230 -43 22 -65 26 -173 29
-69 3 -128 7 -133 9 -4 3 -8 13 -7 23 0 9 -3 27 -6 39 -3 13 -8 33 -11 44 -10
49 -79 260 -107 329 -29 71 -137 298 -157 330 -5 8 -27 44 -47 80 -21 36 -42
66 -46 68 -4 2 -8 8 -8 12 0 9 -59 101 -70 110 -4 3 -20 25 -37 50 -17 25 -41
55 -52 67 -12 13 -19 23 -16 23 3 0 -3 8 -12 18 -10 11 -48 52 -84 93 -114
127 -161 173 -299 294 -96 84 -348 265 -369 265 -5 0 -11 4 -13 8 -8 20 -381
212 -441 227 -59 15 -7 20 211 20 255 1 260 2 300 74 41 73 34 181 -16 236
-38 42 -66 52 -149 50 -40 0 -73 0 -73 1 0 0 5 15 10 31 8 21 34 46 83 79 40
27 80 56 91 64 82 65 172 147 231 209 38 41 79 84 90 96 11 12 33 39 49 61 17
21 33 41 36 44 3 3 21 28 40 55 19 28 43 60 54 72 11 13 15 23 10 23 -5 0 -4
4 2 8 35 24 264 460 264 504 0 8 4 18 9 24 19 20 131 366 157 487 3 12 7 31 9
42 3 11 12 52 20 90 18 79 20 90 30 160 4 28 9 59 11 69 6 33 24 169 29 226 3
31 7 71 10 90 12 93 19 311 19 555 -1 231 -5 344 -19 535 -11 149 -16 207 -20
220 -2 8 -7 49 -10 90 -4 41 -9 84 -11 95 -3 11 -7 43 -9 70 -3 28 -7 59 -9
70 -3 18 -10 63 -22 140 -3 17 -7 37 -9 45 -2 8 -7 35 -10 59 -3 23 -7 47 -10
51 -3 4 -7 23 -9 41 -8 57 -77 323 -88 336 -5 7 -7 17 -4 22 4 5 2 12 -4 16
-5 3 -10 14 -10 23 0 17 -28 95 -87 247 -40 100 -162 351 -211 433 -18 29 -32
57 -32 62 0 6 -4 10 -8 10 -5 0 -15 12 -23 28 -13 27 -166 238 -200 277 -9 11
-37 42 -61 70 -68 78 -206 214 -283 279 -38 32 -71 63 -73 67 -2 5 -10 9 -17
9 -7 0 -15 3 -17 8 -5 12 -86 72 -97 72 -5 0 -11 4 -13 9 -3 8 -152 108 -203
137 -177 99 -465 234 -507 237 -10 1 -18 4 -18 8 0 4 -52 24 -90 34 -3 1 -36
11 -75 24 -77 25 -196 59 -235 67 -14 3 -50 11 -80 19 -31 8 -73 17 -95 20
-22 3 -47 8 -55 11 -8 4 -31 8 -50 10 -19 2 -46 6 -60 10 -14 4 -34 8 -45 9
-11 1 -42 5 -70 10 -54 8 -63 9 -175 20 -41 4 -88 9 -105 11 -16 2 -97 5 -178
8 -81 3 -152 8 -157 11 -5 3 -11 1 -14 -4 -4 -6 -18 -6 -35 -1 -16 4 -31 7
-33 5z"/>
</g>
</svg>
